HIERARCHY
ROOT Hips
{
 OFFSET 0.000000 0.000000 0.000000
 CHANNELS 6 Xposition Yposition Zposition Yrotation Xrotation Zrotation
 JOINT Chest
 {
  OFFSET 0.000000 10.383400 0.001500
  CHANNELS 3 Yrotation Xrotation Zrotation
  JOINT Chest2
  {
   OFFSET 0.000000 10.418200 -0.003100
   CHANNELS 3 Yrotation Xrotation Zrotation
   JOINT Chest3
   {
    OFFSET 0.000000 10.375100 0.000000
    CHANNELS 3 Yrotation Xrotation Zrotation
    JOINT Chest4
    {
     OFFSET 0.000000 10.364600 0.000000
     CHANNELS 3 Yrotation Xrotation Zrotation
     JOINT Neck
     {
      OFFSET 0.000000 15.642200 0.000000
      CHANNELS 3 Yrotation Xrotation Zrotation
      JOINT Head
      {
       OFFSET 0.000000 9.697300 -0.006500
       CHANNELS 3 Yrotation Xrotation Zrotation
       End Site
       {
        OFFSET 0.000000 18.492200 -0.003400
       }
      }
     }
     JOINT RightCollar
     {
      OFFSET -3.166800 10.349300 0.000000
      CHANNELS 3 Yrotation Xrotation Zrotation
      JOINT RightShoulder
      {
       OFFSET -14.729700 0.000000 0.000000
       CHANNELS 3 Yrotation Xrotation Zrotation
       JOINT RightElbow
       {
        OFFSET 0.000000 -32.224300 0.000000
        CHANNELS 3 Yrotation Xrotation Zrotation
        JOINT RightWrist
        {
         OFFSET 0.000000 -26.084100 0.000000
         CHANNELS 3 Yrotation Xrotation Zrotation
         End Site
         {
          OFFSET 0.000000 -19.319400 0.000000
         }
        }
       }
      }
     }
     JOINT LeftCollar
     {
      OFFSET 3.166800 10.349300 0.000000
      CHANNELS 3 Yrotation Xrotation Zrotation
      JOINT LeftShoulder
      {
       OFFSET 14.729700 0.000000 0.000000
       CHANNELS 3 Yrotation Xrotation Zrotation
       JOINT LeftElbow
       {
        OFFSET 0.000000 -32.224300 0.000000
        CHANNELS 3 Yrotation Xrotation Zrotation
        JOINT LeftWrist
        {
         OFFSET 0.000000 -26.084100 0.000000
         CHANNELS 3 Yrotation Xrotation Zrotation
         End Site
         {
          OFFSET 0.000000 -19.319400 0.000000
         }
        }
       }
      }
     }
    }
   }
  }
 }
 JOINT RightHip
 {
  OFFSET -8.428900 -0.007500 -0.000800
  CHANNELS 3 Yrotation Xrotation Zrotation
  JOINT RightKnee
  {
   OFFSET 0.000000 -43.834600 0.000700
   CHANNELS 3 Yrotation Xrotation Zrotation
   JOINT RightAnkle
   {
    OFFSET 0.000000 -42.757000 0.001200
    CHANNELS 3 Yrotation Xrotation Zrotation
    JOINT RightToe
    {
     OFFSET 0.000000 -6.946900 15.649300
     CHANNELS 3 Yrotation Xrotation Zrotation
     End Site
     {
      OFFSET 0.000000 -1.580800 6.825800
     }
    }
   }
  }
 }
 JOINT LeftHip
 {
  OFFSET 8.428900 -0.007500 -0.000800
  CHANNELS 3 Yrotation Xrotation Zrotation
  JOINT LeftKnee
  {
   OFFSET 0.000000 -43.834600 0.000700
   CHANNELS 3 Yrotation Xrotation Zrotation
   JOINT LeftAnkle
   {
    OFFSET 0.000000 -42.757000 0.001200
    CHANNELS 3 Yrotation Xrotation Zrotation
    JOINT LeftToe
    {
     OFFSET 0.000000 -6.946900 15.649300
     CHANNELS 3 Yrotation Xrotation Zrotation
     End Site
     {
      OFFSET 0.000000 -1.580800 6.825800
     }
    }
   }
  }
 }
}
MOTION
Frames: 13
Frame Time: 0.008333
0.000000 93.354300 0.000000 0.000000 -5.767877 0.000000 0.000000 11.653817 0.000000 0.000000 -5.885947 0.000000 0.000000 -0.000000 0.000000 0.000000 -0.000000 0.000000 0.000000 12.528835 0.000000 0.000000 0.711642 0.000000 0.000000 -0.000000 0.000000 0.000000 0.000000 -90.000000 0.000000 -2.309062 0.000000 0.000000 2.309062 0.000000 0.000000 -0.000000 0.000000 0.000000 -0.000000 90.000000 0.000000 -2.309062 0.000000 0.000000 2.309062 0.000000 0.000000 8.520406 0.000000 0.000000 1.905762 0.000000 -0.000000 -4.658285 0.000000 0.000000 -0.000000 0.000000 0.000000 8.520406 0.000000 0.000000 1.905762 0.000000 -0.000000 -4.658285 0.000000 0.000000 -0.000000 0.000000
0.357501 151.126414 -9.092208 176.188036 -13.840448 -3.763630 -2.084151 15.383038 2.451856 -0.222031 1.469985 0.252210 -0.377393 2.473152 0.428645 -1.877837 13.668493 2.200228 -0.718108 12.738810 -2.846506 -0.107965 -12.295052 -2.815092 4.426640 -1.356693 -0.502573 13.937685 -15.845853 -10.609077 53.693636 -50.198094 -32.156387 15.795882 -9.164496 -29.331496 -6.523754 -0.134497 -1.528935 0.066628 -18.521668 7.463794 -19.338365 -60.106365 0.391033 -12.513344 -0.620413 8.329221 4.027002 -55.365809 7.642482 -73.975319 82.998847 -72.106408 -2.701589 -17.634906 3.551603 -0.001311 -0.000161 0.007932 2.395429 -54.052454 -6.481253 97.214220 79.870094 104.007405 8.884471 -21.678635 -9.775980 0.013671 -0.004355 0.007913
-0.030158 143.175302 -7.960338 176.179933 -13.839732 -3.762141 -2.081786 15.385853 2.455813 -0.221499 1.470783 0.252528 -0.381647 2.478816 0.435875 -1.871031 13.662462 2.193080 -0.719395 12.738419 -2.845958 -0.112147 -12.293084 -2.805719 4.424251 -1.355074 -0.504244 13.927540 -15.828297 -10.589793 53.703756 -50.220505 -32.180480 15.782662 -9.163893 -29.349921 -6.522330 -0.130236 -1.528910 0.083241 -18.517448 7.453200 -19.329485 -60.106948 0.390676 -12.507805 -0.650532 8.310097 4.036552 -55.366311 7.640533 -73.952127 83.000438 -72.083503 -2.704443 -17.629802 3.552164 -0.000651 0.000315 -0.000289 2.407418 -54.053946 -6.484924 97.201229 79.874166 104.001430 8.878923 -21.673874 -9.777399 0.002151 0.000696 0.000955
-0.350076 136.626973 -7.027175 176.167643 -13.832458 -3.756516 -2.076270 15.383545 2.453965 -0.220982 1.467594 0.257490 -0.381538 2.481060 0.431925 -1.873090 13.670002 2.204512 -0.717252 12.731262 -2.849327 -0.114262 -12.291560 -2.803397 4.431474 -1.355744 -0.515872 13.918350 -15.819477 -10.580243 53.726282 -50.228730 -32.208717 15.739553 -9.170832 -29.371892 -6.516160 -0.134207 -1.538524 0.100191 -18.493590 7.434392 -19.349617 -60.129915 0.419088 -12.490022 -0.678273 8.292490 4.060562 -55.377375 7.627570 -73.953098 83.003484 -72.081638 -2.706761 -17.623678 3.551661 0.000396 -0.003031 0.000176 2.425673 -54.061843 -6.492613 97.172591 79.870508 103.976217 8.863615 -21.668598 -9.772249 0.000160 0.000489 0.000071
-0.580647 131.897622 -6.353277 176.165281 -13.826225 -3.756815 -2.077858 15.382418 2.453676 -0.225115 1.472851 0.259080 -0.375179 2.472732 0.431269 -1.873545 13.671083 2.206134 -0.719153 12.735790 -2.841766 -0.113709 -12.291039 -2.799310 4.426111 -1.333612 -0.504679 13.923307 -15.825094 -10.583812 53.689732 -50.259986 -32.193752 15.733469 -9.178568 -29.391714 -6.514437 -0.133750 -1.539019 0.104940 -18.487540 7.428821 -19.320701 -60.129117 0.408479 -12.488918 -0.703624 8.276216 4.078690 -55.382395 7.611336 -73.912409 83.004202 -72.036308 -2.696781 -17.619018 3.551259 -0.003020 -0.002957 -0.001341 2.429720 -54.068415 -6.494680 97.153380 79.876278 103.956704 8.869280 -21.664480 -9.768307 -0.001726 0.001037 -0.000766
-0.725557 128.910830 -5.928363 176.164229 -13.825290 -3.760708 -2.078237 15.384854 2.457508 -0.223902 1.472224 0.258260 -0.376574 2.475119 0.431387 -1.872114 13.668341 2.208727 -0.722573 12.748064 -2.825908 -0.108296 -12.301038 -2.811191 4.425450 -1.322999 -0.499139 13.919657 -15.820655 -10.575330 53.570258 -50.328271 -32.121039 15.791001 -9.183491 -29.406716 -6.513044 -0.125340 -1.536431 0.108977 -18.489139 7.420703 -19.288124 -60.128475 0.391263 -12.469982 -0.742441 8.270976 4.075503 -55.382601 7.617845 -73.889405 83.005321 -72.012286 -2.698894 -17.616083 3.550133 -0.002539 -0.004369 -0.001127 2.428751 -54.072329 -6.492430 97.171725 79.876271 103.973896 8.888705 -21.661247 -9.770867 0.000351 -0.000784 0.000156
-0.805361 127.268150 -5.695278 176.161146 -13.826829 -3.760929 -2.076507 15.389383 2.459554 -0.226382 1.473675 0.258126 -0.377533 2.477400 0.432031 -1.872587 13.667034 2.208563 -0.721593 12.751978 -2.820143 -0.106342 -12.304901 -2.813106 4.428637 -1.315043 -0.494846 13.916485 -15.820765 -10.570658 53.513308 -50.366786 -32.085380 15.789254 -9.186597 -29.430175 -6.506793 -0.103490 -1.536429 0.116709 -18.500129 7.412641 -19.261561 -60.132305 0.375832 -12.432125 -0.796710 8.268119 4.076522 -55.380475 7.621961 -73.847660 83.011013 -71.971927 -2.706884 -17.613064 3.550713 -0.002335 -0.005344 -0.001036 2.431495 -54.067954 -6.494948 97.164790 79.872313 103.967446 8.895663 -21.664931 -9.774166 0.000807 0.001037 0.000358
-0.843782 126.485799 -5.584355 176.163468 -13.825624 -3.758505 -2.080705 15.391893 2.459152 -0.225645 1.471874 0.256075 -0.379239 2.479805 0.434323 -1.880421 13.672985 2.209592 -0.717803 12.752261 -2.815533 -0.112656 -12.284775 -2.789401 4.435238 -1.310081 -0.497286 13.918149 -15.829973 -10.573373 53.432318 -50.411239 -32.025186 15.784104 -9.185533 -29.451877 -6.497778 -0.100531 -1.542860 0.122743 -18.497903 7.404980 -19.227040 -60.128649 0.360997 -12.396602 -0.855422 8.261169 4.071778 -55.379800 7.628204 -73.844719 83.005999 -71.973441 -2.710012 -17.613498 3.550722 0.001418 -0.005324 0.000630 2.432066 -54.068358 -6.498652 97.171633 79.873653 103.973443 8.878109 -21.670721 -9.766848 -0.002666 0.000668 -0.001184
-0.858839 126.165625 -5.538893 176.165263 -13.822519 -3.759635 -2.084033 15.392507 2.464199 -0.226736 1.472074 0.253635 -0.379794 2.481491 0.437905 -1.882666 13.673145 2.210117 -0.717314 12.752073 -2.816851 -0.114475 -12.273848 -2.777446 4.433711 -1.299658 -0.501190 13.920848 -15.826451 -10.561438 53.394144 -50.443767 -32.011738 15.757087 -9.183173 -29.470611 -6.495104 -0.094705 -1.551558 0.118722 -18.494948 7.399076 -19.166800 -60.120813 0.341170 -12.356259 -0.925450 8.247213 4.064466 -55.381986 7.636889 -73.837089 83.001596 -71.968820 -2.709055 -17.611718 3.548247 0.002627 -0.005592 0.001166 2.429720 -54.071088 -6.499515 97.174974 79.873680 103.975944 8.889340 -21.673557 -9.772353 -0.000215 0.000409 -0.000095
-0.864264 126.054085 -5.523225 176.166651 -13.819041 -3.756764 -2.087613 15.390660 2.463402 -0.225551 1.474846 0.256868 -0.383964 2.482512 0.438358 -1.885370 13.674585 2.211384 -0.714650 12.751243 -2.819318 -0.112094 -12.266116 -2.767854 4.430600 -1.288769 -0.505364 13.915866 -15.802099 -10.527502 53.369573 -50.489255 -32.026840 15.748688 -9.177577 -29.482958 -6.493413 -0.091500 -1.560996 0.120103 -18.490737 7.394048 -19.084298 -60.119822 0.303841 -12.317241 -0.989285 8.225133 4.064725 -55.385811 7.634869 -73.831967 82.999771 -71.965366 -2.711615 -17.608028 3.548162 0.001414 -0.006674 0.000627 2.434162 -54.074270 -6.507945 97.177418 79.872504 103.978813 8.892302 -21.674834 -9.774416 0.001598 -0.000052 0.000709
-0.865722 126.021415 -5.519256 176.163289 -13.817738 -3.752632 -2.087863 15.390345 2.461941 -0.228254 1.476656 0.259712 -0.383406 2.486927 0.439402 -1.887909 13.675478 2.213042 -0.709884 12.762275 -2.803331 -0.107132 -12.274847 -2.778095 4.427954 -1.277389 -0.509869 13.919069 -15.800597 -10.512872 53.276664 -50.551274 -31.977082 15.757886 -9.166900 -29.490904 -6.492043 -0.088199 -1.569144 0.129183 -18.491261 7.384143 -18.986466 -60.123913 0.247788 -12.283564 -1.033305 8.202175 4.073887 -55.388232 7.629244 -73.820078 82.999839 -71.954707 -2.713965 -17.604590 3.550075 -0.000424 -0.007903 -0.000188 2.442799 -54.075940 -6.515257 97.179529 79.870527 103.981154 8.889072 -21.674990 -9.774616 0.002535 -0.000707 0.001125
-0.866541 126.012874 -5.516939 176.160374 -13.804520 -3.745917 -2.092232 15.389024 2.464266 -0.230954 1.480960 0.262590 -0.380422 2.479239 0.433310 -1.890094 13.676655 2.215185 -0.707045 12.761028 -2.800056 -0.104023 -12.278995 -2.783509 4.426751 -1.271990 -0.515717 13.924150 -15.804615 -10.507955 53.182607 -50.608819 -31.919801 15.745492 -9.153740 -29.500614 -6.489511 -0.088231 -1.576094 0.138673 -18.484862 7.375598 -18.877785 -60.137665 0.179688 -12.254686 -1.063313 8.180506 4.090065 -55.401656 7.614414 -73.805638 83.000134 -71.939872 -2.714553 -17.603701 3.551304 -0.001166 -0.007344 -0.000518 2.454554 -54.089142 -6.528452 97.179466 79.872199 103.985609 8.876666 -21.675755 -9.772019 0.003376 -0.000589 0.001499
-0.866425 126.011036 -5.517311 176.159475 -13.800525 -3.742502 -2.093970 15.388639 2.463026 -0.231544 1.481299 0.262871 -0.383606 2.484496 0.436338 -1.893376 13.678496 2.216381 -0.702088 12.754049 -2.802359 -0.102029 -12.279381 -2.782673 4.429531 -1.264212 -0.519037 13.929086 -15.811487 -10.505136 53.074722 -50.673424 -31.856444 15.735163 -9.138711 -29.509703 -6.482820 -0.096349 -1.582828 0.153273 -18.439748 7.359208 -18.865907 -60.181013 0.188902 -12.241375 -1.076472 8.169838 4.097896 -55.405242 7.607219 -73.788519 83.001238 -71.923884 -2.714298 -17.601419 3.552089 -0.002341 -0.007830 -0.001039 2.461799 -54.092417 -6.542020 97.169152 79.867592 103.978196 8.878404 -21.675340 -9.772442 0.001295 -0.000543 0.000575
